HIERARCHY
ROOT hip
{
	OFFSET 0.000000 0.000000 0.000000 
	CHANNELS 6 Xposition Yposition Zposition Xrotation Zrotation Yrotation
	JOINT abdomen
	{
		OFFSET 0.000000 3.402643 0.000000 
		CHANNELS 3 Xrotation Zrotation Yrotation
		JOINT chest
		{
			OFFSET 0.000000 8.438565 -0.680529 
			CHANNELS 3 Xrotation Zrotation Yrotation
			JOINT neck
			{
				OFFSET 0.000000 10.207942 -0.272212 
				CHANNELS 3 Xrotation Zrotation Yrotation
				JOINT head
				{
					OFFSET 0.000000 3.130431 0.000000 
					CHANNELS 3 Xrotation Zrotation Yrotation
					End Site
					{
						OFFSET 0.000000 3.130435 0.000000 
					}
				}
			}
			JOINT lCollar
			{
				OFFSET 3.470700 6.669187 -0.816635 
				CHANNELS 3 Yrotation Zrotation Xrotation
				JOINT lShldr
				{
					OFFSET 3.198488 0.000000 0.000000 
					CHANNELS 3 Zrotation Yrotation Xrotation
					JOINT lForeArm
					{
						OFFSET 10.139888 0.000000 0.000000 
						CHANNELS 3 Yrotation Zrotation Xrotation
						JOINT lHand
						{
							OFFSET 8.370511 0.000000 0.000000 
							CHANNELS 3 Zrotation Yrotation Xrotation
							End Site
							{
								OFFSET 4.083176 0.000000 0.000000 
							}
						}
					}
				}
			}
			JOINT rCollar
			{
				OFFSET -3.470700 6.669187 -0.816635 
				CHANNELS 3 Yrotation Zrotation Xrotation
				JOINT rShldr
				{
					OFFSET -3.198488 0.000000 0.000000 
					CHANNELS 3 Zrotation Yrotation Xrotation
					JOINT rForeArm
					{
						OFFSET -10.139888 0.000000 0.000000 
						CHANNELS 3 Yrotation Zrotation Xrotation
						JOINT rHand
						{
							OFFSET -8.370511 0.000000 0.000000 
							CHANNELS 3 Zrotation Yrotation Xrotation
							End Site
							{
								OFFSET -4.083176 0.000000 0.000000 
							}
						}
					}
				}
			}
		}
	}
	JOINT lThigh
	{
		OFFSET 5.308129 -1.633274 1.361059 
		CHANNELS 3 Xrotation Zrotation Yrotation
		JOINT lShin
		{
			OFFSET -2.041588 -20.007561 0.000000 
			CHANNELS 3 Xrotation Zrotation Yrotation
			JOINT lFoot
			{
				OFFSET 0.000000 -19.190928 -1.224953 
				CHANNELS 3 Xrotation Yrotation Zrotation
				End Site
				{
					OFFSET 0.000000 -2.449906 4.627600 
				}
			}
		}
	}
	JOINT rThigh
	{
		OFFSET -5.308129 -1.633274 1.361059 
		CHANNELS 3 Xrotation Zrotation Yrotation
		JOINT rShin
		{
			OFFSET 2.041588 -20.007561 0.000000 
			CHANNELS 3 Xrotation Zrotation Yrotation
			JOINT rFoot
			{
				OFFSET 0.000000 -19.190928 -1.224953 
				CHANNELS 3 Xrotation Yrotation Zrotation
				End Site
				{
					OFFSET 0.000000 -2.449906 4.627600 
				}
			}
		}
	}
}
MOTION
Frames: 6
Frame Time: 0.016667
-20.420380 44.939774 15.832129 -7.763672 -15.429686 137.460938 0.000000 0.000000 0.000000 3.632813 2.500000 2.119140 42.509766 3.320313 0.898438 -13.281250 2.763672 -7.753435 3.515625 -25.000000 15.414284 -40.791016 -10.312501 11.425782 -23.330076 -0.849609 55.029507 14.169923 -10.595703 -8.507654 4.521484 25.000000 16.265404 25.927734 25.654297 51.273758 25.351561 0.175781 15.517577 -19.609375 9.521484 -9.443359 -43.066467 6.893784 -7.320261 34.383583 -3.667874 3.132911 -8.092626 0.346005 -2.802169 -12.967599 -33.861946 -7.675312 21.888504 -3.007606 -5.507279 -1.519109 -0.902729 11.356897 
-21.356882 45.121407 14.048626 -8.095703 -16.865234 131.540146 0.000000 0.000000 0.000000 3.603516 1.953125 2.324219 40.712891 2.070312 2.050781 -12.490233 3.632813 -8.007193 4.550781 -25.000000 14.945535 -41.708984 -7.431641 12.020221 -29.794922 1.513672 50.751694 17.607422 -9.638673 -9.052734 6.435546 24.999998 15.722656 25.888670 22.617186 46.718750 25.263672 -0.058594 18.017580 -21.376953 7.685547 -9.414062 -42.688614 7.586619 -2.382006 36.122540 -3.658064 4.546642 -8.244004 0.388117 -3.180847 -15.000147 -34.872715 -13.267311 15.221724 -4.251069 -0.465072 6.437145 -0.051046 8.623809 
-22.241421 45.459999 12.478331 -7.109375 -18.017580 124.108307 0.000000 0.000000 0.000000 3.828125 0.810547 2.353516 40.039063 0.322266 2.841852 -12.021485 3.847657 -7.441407 5.869141 -25.000000 15.751953 -42.666016 -3.056641 8.066406 -36.962891 1.259766 50.683372 18.818359 -10.156250 -9.376720 7.695313 25.000000 16.646261 27.500000 20.244143 44.160156 27.031250 -1.533203 19.863543 -23.583986 6.230469 -9.482423 -41.294186 8.680624 3.268750 36.186836 -3.659326 6.465268 -9.104920 0.357356 -2.964850 -21.523243 -35.243382 -5.928141 16.590950 -3.049584 -4.751254 12.869304 0.168442 4.499929 
-23.024902 46.076385 11.127348 -6.123047 -18.154297 118.515625 0.000000 0.000000 0.000000 4.150391 -0.029297 2.167964 41.669922 -0.400391 2.587822 -12.558594 3.388672 -6.552156 6.259766 -25.000000 17.142797 -41.474609 0.009766 8.398439 -42.431641 1.035156 49.228519 18.496094 -10.810547 -9.435424 7.119140 25.000000 18.330078 29.511721 17.656248 39.387726 31.152342 -2.431640 22.548830 -26.738281 4.628906 -9.619140 -38.325867 8.436375 6.957230 33.339611 -3.618089 9.138631 -8.744577 0.294533 -2.346508 -29.185781 -32.984596 1.365700 26.727852 -1.107808 -5.930592 13.266868 0.063020 2.406595 
-23.742714 47.080944 9.951966 -5.996094 -18.183594 115.787964 0.000000 0.000000 0.000000 4.355469 -0.390625 1.855469 44.326172 -0.244141 1.874958 -13.818359 2.968750 -5.996094 5.507813 -25.000000 18.046875 -38.369141 -0.419922 11.455078 -43.203125 0.996094 48.291019 17.548828 -11.376953 -9.347628 5.400391 25.000000 19.507591 30.468750 14.355468 33.056641 36.455078 -2.763672 23.965311 -30.615234 2.119140 -9.491826 -34.886631 6.892832 6.326043 26.766977 -3.567109 11.302005 -4.824331 0.388185 -3.389448 -35.465675 -29.850925 -1.511222 39.735405 -1.630667 0.272712 8.672038 -0.027211 2.733104 
-24.438835 48.386543 8.868324 -6.708985 -18.779297 114.042969 0.000000 0.000000 0.000000 4.443359 -0.263672 1.699219 46.015625 -0.019531 1.591794 -15.195313 2.880859 -5.800732 4.345703 -25.000000 18.291016 -35.693359 -3.623047 13.837892 -39.794922 1.064453 48.408203 16.093750 -12.109375 -9.150390 4.013672 25.000000 20.019531 30.576172 11.533204 27.099609 40.087894 -2.910156 23.486824 -34.423828 -0.507813 -9.160155 -31.628695 6.249743 3.442326 17.628878 -2.159799 8.374911 2.893312 0.521237 -8.496382 -40.975754 -26.698654 -7.563593 50.214886 -2.920030 3.128060 2.371149 -0.189383 3.290236 
